{"scene":0,"scenes":[{"nodes":[0]}],"asset":{"version":"2.0","generator":"https://github.com/mikedh/trimesh"},"accessors":[{"componentType":5125,"type":"SCALAR","bufferView":0,"count":82323,"max":[14756],"min":[0]},{"componentType":5126,"type":"VEC3","byteOffset":0,"bufferView":1,"count":14757,"max":[156.91746520996094,236.38414001464844,59.508575439453125],"min":[151.4151611328125,226.9803924560547,50.11489486694336]},{"componentType":5126,"type":"VEC2","byteOffset":0,"bufferView":3,"count":14757,"max":[0.9984375238418579,0.9979166388511658],"min":[-6.1151086229232696e-15,-3.6637359812630166e-14]}],"meshes":[{"name":"geometry_0","extras":{"processed":true},"primitives":[{"attributes":{"POSITION":1,"TEXCOORD_0":2},"indices":0,"mode":4,"material":0}]}],"images":[{"bufferView":2,"mimeType":"image/png"}],"textures":[{"source":0}],"materials":[{"pbrMetallicRoughness":{"baseColorTexture":{"index":0},"baseColorFactor":[0.4,0.4,0.4,1.0],"roughnessFactor":0.9036020036098448},"doubleSided":false}],"cameras":[{"name":"camera_XZSYK5","type":"perspective","perspective":{"aspectRatio":1.2205078634134046,"yfov":1.2870022175865687,"znear":0.01}}],"nodes":[{"name":"world","children":[1]},{"name":"geometry_0","mesh":0,"matrix":[-0.7562190275169013,1.3877787807814457e-17,-0.6543185634088277,0.0,-0.2032705001877168,0.9505211538096171,0.23492688205880036,0.0,0.6219436358504101,0.3106598399543045,-0.7188021825681516,0.0,127.749,-235.006,91.142,1.0]}],"buffers":[{"uri":"gltf_buffer.bin","byteLength":1051288}],"bufferViews":[{"buffer":0,"byteOffset":0,"byteLength":329292},{"buffer":0,"byteOffset":329292,"byteLength":177084},{"buffer":0,"byteOffset":506376,"byteLength":426856},{"buffer":0,"byteOffset":933232,"byteLength":118056}]}