{"scene":0,"scenes":[{"nodes":[0]}],"asset":{"version":"2.0","generator":"https://github.com/mikedh/trimesh"},"accessors":[{"componentType":5125,"type":"SCALAR","bufferView":0,"count":77664,"max":[14286],"min":[0]},{"componentType":5126,"type":"VEC3","byteOffset":0,"bufferView":1,"count":14287,"max":[1.2794300317764282,2.1558706760406494,2.042200803756714],"min":[-6.190062999725342,-1.0713045597076416,-2.466127634048462]},{"componentType":5126,"type":"VEC2","byteOffset":0,"bufferView":3,"count":14287,"max":[0.9984375238418579,0.9979166388511658],"min":[0.0,0.0]}],"meshes":[{"name":"geometry_0","extras":{"processed":true},"primitives":[{"attributes":{"POSITION":1,"TEXCOORD_0":2},"indices":0,"mode":4,"material":0}]}],"images":[{"bufferView":2,"mimeType":"image/png"}],"textures":[{"source":0}],"materials":[{"pbrMetallicRoughness":{"baseColorTexture":{"index":0}},"doubleSided":false}],"cameras":[{"name":"camera_SAEAFH","type":"perspective","perspective":{"aspectRatio":1.2205078634134043,"yfov":1.2870022175865687,"znear":0.01}}],"nodes":[{"name":"world","children":[1]},{"name":"frame_000","mesh":0}],"buffers":[{"uri":"gltf_buffer.bin","byteLength":873324}],"bufferViews":[{"buffer":0,"byteOffset":0,"byteLength":310656},{"buffer":0,"byteOffset":310656,"byteLength":171444},{"buffer":0,"byteOffset":482100,"byteLength":276928},{"buffer":0,"byteOffset":759028,"byteLength":114296}]}