{"scene":0,"scenes":[{"nodes":[0]}],"asset":{"version":"2.0","generator":"https://github.com/mikedh/trimesh"},"accessors":[{"componentType":5125,"type":"SCALAR","bufferView":0,"count":4201656,"max":[703941],"min":[0]},{"componentType":5126,"type":"VEC3","byteOffset":0,"bufferView":1,"count":703942,"max":[7.315964698791504,6.622602462768555,7.32588005065918],"min":[-3.541468620300293,0.4337758719921112,1.3116618394851685]},{"componentType":5121,"normalized":true,"type":"VEC4","byteOffset":0,"bufferView":2,"count":703942,"max":[255,255,255,255],"min":[0,0,0,255]},{"componentType":5126,"count":703942,"type":"VEC3","byteOffset":0,"bufferView":3,"max":[0.9999982118606567,0.9999969005584717,1.0],"min":[-0.9999985098838806,-0.9999999403953552,-0.9999979734420776]}],"meshes":[{"name":"geometry_0","extras":{"processed":true},"primitives":[{"attributes":{"POSITION":1,"COLOR_0":2,"NORMAL":3},"indices":0,"mode":4}]}],"cameras":[{"name":"camera_0G0AQJ","type":"perspective","perspective":{"aspectRatio":1.2773621137776705,"yfov":0.8559799756037487,"znear":0.01}}],"nodes":[{"name":"world","children":[1]},{"name":"geometry_0","mesh":0}],"buffers":[{"uri":"gltf_buffer.bin","byteLength":36517000}],"bufferViews":[{"buffer":0,"byteOffset":0,"byteLength":16806624},{"buffer":0,"byteOffset":16806624,"byteLength":8447304},{"buffer":0,"byteOffset":25253928,"byteLength":2815768},{"buffer":0,"byteOffset":28069696,"byteLength":8447304}]}